# AST/ASF file generated using VICON BodyLanguage
# -----------------------------------------------
:version 1.10
:name VICON
:units
  mass 1.0
  length 0.45
  angle deg
:documentation
   .ast/.asf automatically generated from VICON data using
   VICON BodyBuilder and BodyLanguage model FoxedUp or BRILLIANT.MOD
:root
   order TX TY TZ RX RY RZ
   axis XYZ
   position 0 0 0  
   orientation 0 0 0 
:bonedata
  begin
     id 1 
     name lhipjoint
     direction 0.624716 -0.669793 0.401383 
     length 2.38238 
     axis 0 0 0  XYZ
  end
  begin
     id 2 
     name lfemur
     direction 0.34202 -0.939693 0  
     length 6.4574  
     axis 0 0 20  XYZ
    dof rx ry rz
    limits (-160.0 20.0)
           (-70.0 70.0)
           (-60.0 70.0)
  end
  begin
     id 3 
     name ltibia
     direction 0.34202 -0.939693 0   
     length 7.68739   
     axis 0 0 20   XYZ
    dof rx
    limits (-10.0 170.0)
  end
  begin
     id 4 
     name lfoot
     direction 0.0681309 -0.187188 0.979959   
     length 2.46615   
     axis -90 7.62852e-016 20   XYZ
    dof rx rz
    limits (-45.0 90.0)
           (-70.0 20.0)
  end
  begin
     id 5 
     name ltoes
     direction 1.53566e-011 -4.21819e-011 1   
     length 1.2376   
     axis -90 7.62852e-016 20   XYZ
    dof rx
    limits (-90.0 20.0)
  end
  begin
     id 6 
     name rhipjoint
     direction -0.644473 -0.655875 0.393043   
     length 2.43293  
     axis 0 0 0  XYZ 
  end
  begin
     id 7 
     name rfemur
     direction -0.34202 -0.939693 0   
     length 6.7025   
     axis 0 0 -20   XYZ
    dof rx ry rz
    limits (-160.0 20.0)
           (-70.0 70.0)
           (-70.0 60.0)
  end
  begin
     id 8 
     name rtibia
     direction -0.34202 -0.939693 0   
     length 7.80547   
     axis 0 0 -20   XYZ
    dof rx
    limits (-10.0 170.0)
 end
 begin
     id 9 
     name rfoot
     direction -0.0756734 -0.207911 0.975216   
     length 2.40315  
     axis -90 -7.62852e-016 -20   XYZ
    dof rx rz
    limits (-45.0 90.0)
           (-20.0 70.0)
  end
  begin
     id 10 
     name rtoes
     direction -1.5353e-011 -4.21879e-011 1   
     length 1.20477   
     axis -90 -7.62852e-016 -20   XYZ
    dof rx
    limits (-90.0 20.0)
  end
  begin
     id 11 
     name lowerback
     direction 0.0160353 0.987463 -0.157037   
     length 2.18572   
     axis 0 0 0   XYZ
    dof rx ry rz
    limits (-20.0 45.0)
           (-30.0 30.0)
           (-30.0 30.0)
  end
  begin
     id 12 
     name upperback
     direction -0.00499661 0.999756 0.0215076   
     length 2.18016   
     axis 0 0 0   XYZ
    dof rx ry rz
    limits (-20.0 45.0)
           (-30.0 30.0)
           (-30.0 30.0)
  end
  begin
     id 13 
     name thorax
     direction -0.00921346 0.995333 0.0960619   
     length 2.24923   
     axis 0 0 0   XYZ
    dof rx ry rz
    limits (-20.0 45.0)
           (-30.0 30.0)
           (-30.0 30.0)
  end
  begin
     id 14 
     name lowerneck
     direction 0.0274184 0.991181 0.12965   
     length 1.70911   
     axis 0 0 0   XYZ
    dof rx ry rz
    limits (-20.0 45.0)
           (-30.0 30.0)
           (-30.0 30.0)
  end
  begin
     id 15 
     name upperneck
     direction 0.0015627 0.999959 -0.00893559   
     length 1.69312   
     axis 0 0 0   XYZ
    dof rx ry rz
    limits (-20.0 45.0)
           (-30.0 30.0)
           (-30.0 30.0)
  end
  begin
     id 16
     name head
     direction -0.00230242 0.999856 -0.0168327  
     length 1.80241  
     axis 0 0 0   XYZ
    dof rx ry rz
    limits (-20.0 45.0)
           (-30.0 30.0)
           (-30.0 30.0)
  end
  begin
     id 17 
     name lclavicle
     direction 0.955523 0.290741 -0.0494489  
     length 3.84275  
     axis 0 0 0   XYZ
    dof ry rz
    limits (-20.0 10.0)
           (0.0 20.0)
  end
  begin
     id 18 
     name lhumerus
     direction 1 -4.48967e-011 -3.18382e-028   
     length 5.17714   
     axis 180 -30 -90   XYZ
    dof rx ry rz
    limits (-60.0 90.0)
           (-90.0 90.0)
           (-90.0 90.0)
  end
  begin
     id 19
     name lradius
     direction 1 -4.48968e-011 -2.22911e-027   
     length 3.43679   
     axis 180 -30 -90   XYZ
    dof rx
    limits (-10.0 170.0)
  end
  begin
     id 20
     name lwrist
     direction 1 -4.48951e-011 -6.32245e-027   
     length 1.7184   
     axis 3.57107e-015 90 90   XYZ
    dof ry
    limits (-180.0 0.0)
 end
  begin
     id 21 
     name lhand
     direction 1 -4.48924e-011 -1.26431e-026   
     length 0.573117   
     axis 8.06912e-015 90 90   XYZ
    dof rx rz
    limits (-90.0 90.0)
           (-45.0 45.0)
  end
  begin
     id 22 
     name lfingers
     direction 1 -4.49001e-011 -2.52965e-026   
     length 0.462062   
     axis 1.61381e-014 90 90   XYZ
    dof rx
    limits (0.0 90.0)
  end
  begin
     id 23
     name lthumb
     direction 0.707107 -6.35008e-011 0.707107   
     length 0.663431   
     axis -90 45 -1.62303e-014   XYZ
    dof rx rz
    limits (-45.0 45.0)
           (-45.0 45.0)
  end
  begin
     id 24 
     name rclavicle
     direction -0.963917 0.256881 -0.0698287   
     length 3.73057  
     axis 0 0 0   XYZ 
    dof ry rz
    limits (-10.0 20.0)
           (-20.0 0.0)
  end
  begin
     id 25 
     name rhumerus
     direction -1 -4.48962e-011 -2.73982e-027  
     length 5.23908   
     axis 180 30 90   XYZ
    dof rx ry rz
    limits (-90.0 60.0)
           (-90.0 90.0)
           (-90.0 90.0)
  end
  begin
     id 26 
     name rradius
     direction -1 -4.48968e-011 -4.33218e-027   
     length 3.46485   
     axis 180 30 90   XYZ
    dof rx
    limits (-10.0 170.0)
  end
  begin
     id 27 
     name rwrist
     direction -1 -4.48989e-011 -6.32372e-027   
     length 1.73243   
     axis 3.57107e-015 -90 -90   XYZ
    dof ry
    limits (-180.0 0.0)
  end
  begin
     id 28
     name rhand
     direction -1 -4.48948e-011 -1.26448e-026   
     length 0.608752   
     axis 8.06912e-015 -90 -90   XYZ
    dof rx rz
    limits (-90.0 90.0)
           (-45.0 45.0)
  end
  begin
     id 29
     name rfingers
     direction -1 -4.48962e-011 -2.52913e-026   
     length 0.490792   
     axis 1.61381e-014 -90 -90   XYZ
    dof rx
    limits (0.0 90.0)
  end
  begin
     id 30
     name rthumb
     direction -0.707107 -6.34878e-011 0.707107   
     length 0.704682   
     axis -90 -45 1.62303e-014   XYZ
    dof rx rz
    limits (-45.0 45.0)
           (-45.0 45.0)
  end
:hierarchy
  begin
    root lhipjoint rhipjoint lowerback
    lhipjoint lfemur
    lfemur ltibia
    ltibia lfoot
    lfoot ltoes
    rhipjoint rfemur
    rfemur rtibia
    rtibia rfoot
    rfoot rtoes
    lowerback upperback
    upperback thorax
    thorax lowerneck lclavicle rclavicle
    lowerneck upperneck
    upperneck head
    lclavicle lhumerus
    lhumerus lradius
    lradius lwrist
    lwrist lhand lthumb
    lhand lfingers
    rclavicle rhumerus
    rhumerus rradius
    rradius rwrist
    rwrist rhand rthumb
    rhand rfingers
  end

#!OML:ASF G:\JayActor3\Patient Classification 1\Patient 1\Session 6\male.ASF
:FULLY-SPECIFIED
:DEGREES
1
root 43.0334 15.9844 16.6214 177.509 -40.7454 -174.512
lowerback 3.67937 -1.25921 0.386995
upperback 4.93131 -1.88133 0.0115547
thorax 2.99798 -1.01574 -0.190555
lowerneck -5.60377 -0.698294 1.11883
upperneck -3.8942 -1.20064 7.40014
head -0.223707 -0.745132 2.10771
rclavicle 6.59965e-014 -3.97569e-015
rhumerus -32.658 -5.60648 -85.964
rradius 34.0205
rwrist 0.581902
rhand -18.426 -4.96486
rfingers 7.12502
rthumb 7.85922 -34.7988
lclavicle 6.59965e-014 -3.97569e-015
lhumerus -26.5589 7.61519 83.3413
lradius 18.6854
lwrist 9.66677
lhand -18.3803 11.1481
lfingers 7.12502
lthumb 7.90332 40.9804
rfemur -22.4061 1.21558 22.373
rtibia 45.2329
rfoot -25.1733 -15.024
rtoes 1.89501
lfemur -9.18124 19.6031 -18.0126
ltibia 28.0838
lfoot -21.0378 8.38748
ltoes -0.95183
2
root 43.0392 15.9846 16.6212 177.526 -40.7135 -174.574
lowerback 3.60978 -1.22645 0.325177
upperback 4.91044 -1.83552 -0.0183814
thorax 3.01633 -0.993153 -0.188724
lowerneck -5.57908 -0.748033 1.12895
upperneck -3.79206 -1.26723 7.34781
head -0.19417 -0.772931 2.08723
rclavicle -3.57812e-015 -1.74931e-014
rhumerus -32.7265 -5.9462 -85.81
rradius 33.6421
rwrist 0.869978
rhand -18.4034 -4.95024
rfingers 7.12502
rthumb 7.88098 -34.7833
lclavicle -3.57812e-015 -1.74931e-014
lhumerus -26.5518 7.40776 83.3919
lradius 18.8708
lwrist 9.91815
lhand -18.4631 10.8794
lfingers 7.12502
lthumb 7.82338 40.7147
rfemur -22.183 1.25276 22.3291
rtibia 45.2793
rfoot -24.578 -15.9684
rtoes 0.548108
lfemur -9.15262 19.6049 -18.0449
ltibia 28.0604
lfoot -21.0157 8.44547
ltoes -1.02995
3
root 43.0437 15.983 16.6204 177.525 -40.7112 -174.636
lowerback 3.54845 -1.21483 0.28677
upperback 4.89679 -1.81797 -0.0555953
thorax 3.0365 -0.984032 -0.207041
lowerneck -5.54856 -0.768734 1.05008
upperneck -3.66232 -1.29127 7.38522
head -0.156973 -0.777827 2.11252
rclavicle 2.18663e-015 -2.38542e-015
rhumerus -32.7831 -6.24984 -85.6679
rradius 33.2472
rwrist 1.11167
rhand -18.3182 -4.83186
rfingers 7.12502
rthumb 7.96324 -34.6619
lclavicle 2.18663e-015 -2.38542e-015
lhumerus -26.4352 7.11893 83.4601
lradius 18.9897
lwrist 10.238
lhand -18.4501 10.8012
lfingers 7.12502
lthumb 7.83588 40.636
rfemur -21.9017 1.28319 22.2907
rtibia 45.2216
rfoot -25.1114 -15.4671
rtoes 4.1113
lfemur -9.11042 19.5863 -18.0724
ltibia 28.0574
lfoot -21.0089 8.44771
ltoes -0.904604
4
root 43.0479 15.9829 16.6165 177.468 -40.7373 -174.606
lowerback 3.48667 -1.21241 0.303767
upperback 4.86472 -1.81112 -0.0662085
thorax 3.037 -0.97845 -0.228534
lowerneck -5.58187 -0.780248 1.10252
upperneck -3.53029 -1.31449 7.32356
head -0.110329 -0.783113 2.08189
rclavicle -1.05356e-014 -2.38542e-015
rhumerus -32.912 -6.47423 -85.5331
rradius 32.9337
rwrist 1.26946
rhand -18.3574 -4.92328
rfingers 7.12502
rthumb 7.92537 -34.7547
lclavicle -1.05356e-014 -2.38542e-015
lhumerus -26.4636 6.85386 83.5359
lradius 19.2714
lwrist 10.5586
lhand -18.5891 10.6457
lfingers 7.12502
lthumb 7.70177 40.4854
rfemur -21.6148 1.33861 22.322
rtibia 45.1288
rfoot -24.2266 -16.1905
rtoes 2.14431
lfemur -9.06785 19.5919 -18.0088
ltibia 28.052
lfoot -20.9955 8.41923
ltoes -0.951727
5
root 43.0522 15.982 16.6133 177.446 -40.748 -174.625
lowerback 3.41866 -1.20468 0.290149
upperback 4.83781 -1.79771 -0.0876748
thorax 3.04695 -0.970498 -0.244377
lowerneck -5.57836 -0.798517 1.09542
upperneck -3.40783 -1.34079 7.30297
head -0.0719129 -0.790071 2.07543
rclavicle -9.74045e-015 -1.90833e-014
rhumerus -33.012 -6.73933 -85.3886
rradius 32.5877
rwrist 1.47352
rhand -18.3523 -4.93094
rfingers 7.12502
rthumb 7.93034 -34.7622
lclavicle -9.74045e-015 -1.90833e-014
lhumerus -26.4474 6.59182 83.6033
lradius 19.5305
lwrist 10.8168
lhand -18.5128 10.7275
lfingers 7.12502
lthumb 7.77538 40.5645
rfemur -21.3161 1.40071 22.3146
rtibia 44.9886
rfoot -23.9462 -16.3565
rtoes 2.15301
lfemur -9.02958 19.5739 -17.9934
ltibia 28.0532
lfoot -20.9917 8.42893
ltoes -0.974128
6
root 43.0561 15.9808 16.609 177.433 -40.7639 -174.656
lowerback 3.34571 -1.20017 0.271479
upperback 4.80868 -1.78842 -0.109712
thorax 3.05748 -0.964674 -0.258025
lowerneck -5.58498 -0.81198 1.08358
upperneck -3.27696 -1.36134 7.28645
head -0.0292879 -0.793714 2.07121
rclavicle -1.81292e-013 2.94201e-014
rhumerus -33.1132 -6.99293 -85.2446
rradius 32.247
rwrist 1.66742
rhand -18.3517 -4.94264
rfingers 7.12502
rthumb 7.9309 -34.7739
lclavicle -1.81292e-013 2.94201e-014
lhumerus -26.4307 6.32593 83.672
lradius 19.8218
lwrist 11.0406
lhand -18.3564 10.9653
lfingers 7.12502
lthumb 7.92632 40.7967
rfemur -21.0042 1.48241 22.2961
rtibia 44.7784
rfoot -23.7904 -16.3226
rtoes 2.24366
lfemur -8.98737 19.5486 -17.9864
ltibia 28.0495
lfoot -20.9881 8.44167
ltoes -1.01157
7
root 43.0596 15.9793 16.6036 177.436 -40.7803 -174.706
lowerback 3.26548 -1.19796 0.241728
upperback 4.77662 -1.78201 -0.133424
thorax 3.06931 -0.960498 -0.267306
lowerneck -5.58852 -0.821646 1.06458
upperneck -3.14866 -1.37618 7.2731
head 0.0119237 -0.794625 2.06945
rclavicle -1.6022e-013 2.94201e-014
rhumerus -33.2166 -7.23045 -85.1019
rradius 31.9139
rwrist 1.85101
rhand -18.352 -4.96727
rfingers 7.12502
rthumb 7.93058 -34.7985
lclavicle -1.6022e-013 2.94201e-014
lhumerus -26.4187 6.06561 83.7408
lradius 20.1421
lwrist 11.2371
lhand -18.1446 11.318
lfingers 7.12502
lthumb 8.13074 41.1416
rfemur -20.6954 1.58399 22.2586
rtibia 44.5181
rfoot -23.7573 -16.1459
rtoes 2.29621
lfemur -8.93998 19.514 -17.9955
ltibia 28.0397
lfoot -20.986 8.46469
ltoes -1.07132
8
root 43.0624 15.9775 16.5973 177.462 -40.7968 -174.789
lowerback 3.17854 -1.19715 0.192916
upperback 4.7423 -1.77732 -0.161259
thorax 3.08299 -0.957643 -0.270288
lowerneck -5.59034 -0.827113 1.0305
upperneck -3.02012 -1.38455 7.27084
head 0.0529681 -0.79224 2.07417
rclavicle 6.41081e-014 -2.3059e-014
rhumerus -33.3191 -7.45746 -84.9588
rradius 31.5846
rwrist 2.03189
rhand -18.3438 -4.96575
rfingers 7.12502
rthumb 7.93855 -34.7967
lclavicle 6.41081e-014 -2.3059e-014
lhumerus -26.4071 5.81141 83.8116
lradius 20.4764
lwrist 11.4265
lhand -17.9176 11.7108
lfingers 7.12502
lthumb 8.3499 41.5258
rfemur -20.3869 1.70374 22.1916
rtibia 44.1966
rfoot -23.8416 -15.8779
rtoes 2.38275
lfemur -8.88286 19.4888 -18.0281
ltibia 28.0175
lfoot -20.9819 8.47701
ltoes -1.12931
9
root 43.0648 15.9757 16.59 177.506 -40.8127 -174.894
lowerback 3.0851 -1.19587 0.130316
upperback 4.7051 -1.77175 -0.192085
thorax 3.09766 -0.954638 -0.268748
lowerneck -5.58932 -0.831529 0.990012
upperneck -2.89174 -1.39107 7.27313
head 0.0935492 -0.788972 2.0816
rclavicle -7.74266e-014 2.22639e-014
rhumerus -33.4226 -7.67444 -84.8182
rradius 31.2644
rwrist 2.20513
rhand -18.3323 -4.96139
rfingers 7.12502
rthumb 7.94962 -34.7919
lclavicle -7.74266e-014 2.22639e-014
lhumerus -26.3973 5.55587 83.8875
lradius 20.8152
lwrist 11.6432
lhand -17.7451 12.0607
lfingers 7.12502
lthumb 8.51635 41.8689
rfemur -20.0852 1.8357 22.1048
rtibia 43.8236
rfoot -23.9611 -15.6303
rtoes 2.34546
lfemur -8.81801 19.4827 -18.0764
ltibia 27.9812
lfoot -20.9705 8.47086
ltoes -1.19076
10
root 43.0668 15.9742 16.5819 177.564 -40.8258 -175.016
lowerback 2.98451 -1.19319 0.058129
upperback 4.66595 -1.76409 -0.224974
thorax 3.11456 -0.950784 -0.264116
lowerneck -5.58093 -0.835047 0.940834
upperneck -2.7689 -1.39548 7.28383
head 0.131286 -0.784984 2.09346
rclavicle 2.25621e-014 -7.15625e-015
rhumerus -33.5254 -7.88591 -84.6794
rradius 30.9533
rwrist 2.37586
rhand -18.32 -4.96005
rfingers 7.12502
rthumb 7.96153 -34.7901
lclavicle 2.25621e-014 -7.15625e-015
lhumerus -26.3924 5.30681 83.9669
lradius 21.1517
lwrist 11.8968
lhand -17.6704 12.2747
lfingers 7.12502
lthumb 8.58839 42.08
rfemur -19.7931 1.97084 22.0055
rtibia 43.4156
rfoot -24.0655 -15.4817
rtoes 2.19673
lfemur -8.74398 19.4253 -18.1434
ltibia 27.9304
lfoot -20.963 8.51315
ltoes -1.23263
11
root 43.0687 15.973 16.573 177.631 -40.8346 -175.145
lowerback 2.87803 -1.18823 -0.0174913
upperback 4.62437 -1.7531 -0.257167
thorax 3.1324 -0.945324 -0.256946
lowerneck -5.56585 -0.840098 0.887807
upperneck -2.65222 -1.40118 7.29522
head 0.166079 -0.781977 2.10628
rclavicle -7.46436e-014 1.74931e-014
rhumerus -33.627 -8.09224 -84.5409
rradius 30.6518
rwrist 2.54683
rhand -18.304 -4.96128
rfingers 7.12502
rthumb 7.97695 -34.7908
lclavicle -7.46436e-014 1.74931e-014
lhumerus -26.3993 5.07103 84.05
lradius 21.4877
lwrist 12.1877
lhand -17.6877 12.3429
lfingers 7.12502
lthumb 8.57168 42.1489
rfemur -19.5148 2.09843 21.9047
rtibia 42.9936
rfoot -24.1226 -15.4572
rtoes 1.97478
lfemur -8.666 19.3846 -18.2142
ltibia 27.8699
lfoot -20.9499 8.54878
ltoes -1.28659
